<svg id="Layer_1" data-name="Layer 1" xmlns="http://www.w3.org/2000/svg" viewBox="0 0 48.37 48.37"><defs><style>.cls-1,.cls-3{fill:#f6f7f8;}.cls-1{stroke:#dbdcdd;stroke-miterlimit:10;}.cls-2{fill:#757677;}.cls-4{fill:#4b4c4d;}</style></defs><title>20161004-attributes-icons</title><rect class="cls-1" x="0.5" y="0.5" width="47.37" height="47.37"/><path class="cls-2" d="M35.16,16.91a4.94,4.94,0,0,1,.61-.21l.11,0a.4.4,0,0,0,.34-.38.43.43,0,0,0-.31-.44c-.24-.07-.49-.12-.73-.2a.93.93,0,0,1-.54-.48.88.88,0,0,1,.18-1,2.25,2.25,0,0,1,.65-.41.41.41,0,0,0,.21-.63.39.39,0,0,0-.37-.21c-.22,0-.44,0-.66,0a1,1,0,0,1-.68-.32.86.86,0,0,1-.1-1.07,4,4,0,0,1,.38-.44s.1-.08.15-.13a.37.37,0,0,0,.12-.48A.43.43,0,0,0,34,10.2l-.21.06a4.26,4.26,0,0,1-.59.12A.91.91,0,0,1,32.33,9a3.42,3.42,0,0,1,.28-.46A.43.43,0,0,0,32,7.94a4.64,4.64,0,0,1-.66.33.92.92,0,0,1-1.15-.5,1.18,1.18,0,0,1,0-.79,3.21,3.21,0,0,1,.11-.32.38.38,0,0,0-.15-.51.42.42,0,0,0-.56.05,4.69,4.69,0,0,1-.49.45.94.94,0,0,1-1.41-.34,1.48,1.48,0,0,1-.09-.77s0-.09,0-.14a.39.39,0,0,0-.28-.47.41.41,0,0,0-.54.21,3.84,3.84,0,0,1-.37.55.92.92,0,0,1-1.58-.28,2.82,2.82,0,0,1-.14-.57.43.43,0,0,0-.54-.4.38.38,0,0,0-.3.28,4.23,4.23,0,0,1-.24.68.91.91,0,0,1-1.57.13,3.93,3.93,0,0,1-.33-.59.39.39,0,0,0-.48-.24.4.4,0,0,0-.35.43,3.34,3.34,0,0,1-.06.72.91.91,0,0,1-1.4.52,3,3,0,0,1-.54-.53.45.45,0,0,0-.75,0,.38.38,0,0,0,0,.3,4.06,4.06,0,0,1,.13.7A.91.91,0,0,1,17,7.75a2.28,2.28,0,0,1-.67-.38.42.42,0,0,0-.62.05.34.34,0,0,0,0,.45,2.45,2.45,0,0,1,.32.7.92.92,0,0,1-1,1.12,2.37,2.37,0,0,1-.74-.22.44.44,0,0,0-.6.25.38.38,0,0,0,.11.45,4,4,0,0,1,.42.49.91.91,0,0,1-.62,1.4,2.55,2.55,0,0,1-.81,0,.44.44,0,0,0-.51.52.39.39,0,0,0,.2.26,5.78,5.78,0,0,1,.55.39.82.82,0,0,1,.3.68.9.9,0,0,1-.53.81,2,2,0,0,1-.69.17l-.21,0a.39.39,0,0,0-.31.25,1,1,0,0,1-.06.11v.19s0,0,0,0a.44.44,0,0,0,.31.25,5,5,0,0,1,.56.22.86.86,0,0,1,.53.79.88.88,0,0,1-.46.82,5.45,5.45,0,0,1-.63.29.43.43,0,0,0-.31.35.4.4,0,0,0,.43.5,2.12,2.12,0,0,1,.88.21.85.85,0,0,1,.37,1.19,1.58,1.58,0,0,1-.47.5l-.27.19a.43.43,0,0,0-.15.57.38.38,0,0,0,.43.22l.58-.08a1,1,0,0,1,.64.13.86.86,0,0,1,.39,1.11,2.16,2.16,0,0,1-.46.66.52.52,0,0,0-.17.32.45.45,0,0,0,.2.41.37.37,0,0,0,.42,0,2.58,2.58,0,0,1,.76-.25.89.89,0,0,1,1.08.67,1,1,0,0,1-.08.67c-.08.17-.16.33-.25.5a.39.39,0,0,0,.05.46.41.41,0,0,0,.47.15.56.56,0,0,0,.2-.14,1.88,1.88,0,0,1,.62-.4,1,1,0,0,1,1.18.32.79.79,0,0,1,.12.33,2.22,2.22,0,0,1-.09.92.44.44,0,0,0,.46.56.43.43,0,0,0,.35-.22,4.09,4.09,0,0,1,.37-.47.93.93,0,0,1,1.25-.12.85.85,0,0,1,.41.67q0,.29,0,.58a.44.44,0,0,0,.87.13c.05-.16.11-.31.17-.46a.93.93,0,0,1,1.2-.53,1,1,0,0,1,.67.64l.15.48a.4.4,0,0,0,.49.29.41.41,0,0,0,.35-.4,3.89,3.89,0,0,1,.11-.67.91.91,0,0,1,1.39-.52,1.52,1.52,0,0,1,.61.66l.05.09a.41.41,0,0,0,.55.17.4.4,0,0,0,.25-.49,2.16,2.16,0,0,1,0-.78.87.87,0,0,1,1.23-.71,1.48,1.48,0,0,1,.73.47.67.67,0,0,0,.16.14.41.41,0,0,0,.49-.05.4.4,0,0,0,.14-.47c-.07-.17-.15-.33-.2-.5a1.06,1.06,0,0,1,.09-1,.59.59,0,0,1,.38-.26,1.8,1.8,0,0,1,1.09.08,1.54,1.54,0,0,1,.25.14.39.39,0,0,0,.54,0,.43.43,0,0,0,0-.6,5.38,5.38,0,0,1-.39-.59.9.9,0,0,1,.16-1.07.86.86,0,0,1,.59-.24,2.33,2.33,0,0,1,.86.1.42.42,0,0,0,.57-.5.5.5,0,0,0-.19-.27,5.67,5.67,0,0,1-.5-.48.89.89,0,0,1-.1-1.08.86.86,0,0,1,.62-.41,3.89,3.89,0,0,1,.74,0,.4.4,0,0,0,.43-.29.43.43,0,0,0-.23-.53,5,5,0,0,1-.7-.41A.88.88,0,0,1,35.16,16.91Zm-4.89-5.52a1.19,1.19,0,0,1,1.78.79,1,1,0,0,1-.06.68,1.19,1.19,0,0,1-.5.59l-2.26,1.34A1.2,1.2,0,0,1,28,12.72h0l0,0,.72-.42ZM18.91,9.75a2.63,2.63,0,0,1,.42-.29,8.28,8.28,0,0,1,2.46-1,6.42,6.42,0,0,1,1.43-.2H24a8,8,0,0,1,2.49.37,7.4,7.4,0,0,1,1.94.9l.21.13a.59.59,0,0,1,0,1.05c-.34.17-.69.33-1,.49-.79.36-1.57.74-2.36,1.09a3.39,3.39,0,0,1-2.85,0c-1-.47-2.08-1-3.12-1.43L19,10.71A.57.57,0,0,1,18.91,9.75Zm-3.37,2.6s0-.1,0-.12a1.19,1.19,0,0,1,1.74-.78l.28.15h0l.66.35.65.37.72.39a1.2,1.2,0,0,1-1.16,2.1l-2.3-1.27a1.19,1.19,0,0,1-.52-.57A.94.94,0,0,1,15.55,12.35Zm5.37,11.77a.69.69,0,0,1-.85.2,8.4,8.4,0,0,1-.85-.45,8.06,8.06,0,0,1-2.21-2A8.37,8.37,0,0,1,15.27,16a.69.69,0,0,1,.73-.6.94.94,0,0,1,.47.14l1.11.72,1.62,1.11a3.53,3.53,0,0,1,1.34,1.56,3.11,3.11,0,0,1,.23.92c.05.55.1,1.11.14,1.66s.1,1.3.16,2A.8.8,0,0,1,20.92,24.13Zm4.09.65a1.2,1.2,0,0,1-2.39,0V23.5h0c0-.42,0-.85,0-1.27a1.41,1.41,0,0,1,.06-.43v-.07a1.2,1.2,0,0,1,2.32.39s0,.08,0,.12,0,.15,0,.22Zm1.38-8.11A2.57,2.57,0,0,1,24.53,19a2.6,2.6,0,0,1-2.8-.94,2.54,2.54,0,0,1-.51-1.42c0-.06,0-.11,0-.17a2.68,2.68,0,0,1,.45-1.4,2.34,2.34,0,0,1,1.25-.91,2.64,2.64,0,0,1,2.21.19A2.31,2.31,0,0,1,26.39,16.66Zm5.9,1.49a8.18,8.18,0,0,1-1,2.76A8.58,8.58,0,0,1,29.56,23a10.19,10.19,0,0,1-1.77,1.21,1,1,0,0,1-.79.08.62.62,0,0,1-.45-.47,1,1,0,0,1,0-.38c0-.38.07-.77.1-1.15s.06-.76.09-1.14.07-.82.11-1.23a3.19,3.19,0,0,1,1-2.08,9.19,9.19,0,0,1,.93-.72l1.91-1.35c.16-.11.32-.23.49-.32a1.41,1.41,0,0,1,.36-.14.69.69,0,0,1,.87.66c0,.17,0,.34,0,.51A7.11,7.11,0,0,1,32.3,18.15Z"/><path class="cls-2" d="M23.81,14.44a2,2,0,1,1-2,2,2,2,0,0,1,2-2m0-1a3,3,0,1,0,3,3,3,3,0,0,0-3-3Z"/><path class="cls-2" d="M23.81,10.28a6.17,6.17,0,1,1-6.17,6.17,6.17,6.17,0,0,1,6.17-6.17m0-1A7.17,7.17,0,1,0,31,16.44a7.17,7.17,0,0,0-7.17-7.17Z"/><path class="cls-2" d="M38.1,32a2.25,2.25,0,0,1-1.54-.61L22.31,18.09a2.25,2.25,0,0,1,3.08-3.29L39.63,28.13A2.25,2.25,0,0,1,38.1,32Z"/><path class="cls-3" d="M23.85,14.44a2,2,0,0,1,1.37.54L39.46,28.32a2,2,0,0,1-2.73,2.92L22.48,17.9a2,2,0,0,1,1.37-3.46m0-.5h0a2.5,2.5,0,0,0-1.71,4.32L36.39,31.6A2.5,2.5,0,0,0,39.81,28L25.55,14.62a2.49,2.49,0,0,0-1.71-.67Z"/><circle class="cls-3" cx="23.89" cy="16.4" r="1.06"/><circle class="cls-3" cx="38.08" cy="29.74" r="1.06"/><path class="cls-4" d="M11.81,37.24V32.77h1.54a3.73,3.73,0,0,1,.8.06,1.51,1.51,0,0,1,.66.32,1.83,1.83,0,0,1,.53.76A3,3,0,0,1,15.51,35a3.14,3.14,0,0,1-.12.9,2.22,2.22,0,0,1-.31.65,1.62,1.62,0,0,1-.41.41,1.63,1.63,0,0,1-.53.22,3.06,3.06,0,0,1-.72.08Zm.59-.53h1a2.32,2.32,0,0,0,.69-.08,1,1,0,0,0,.4-.23,1.41,1.41,0,0,0,.33-.57A2.78,2.78,0,0,0,14.9,35a2.08,2.08,0,0,0-.23-1.08,1.16,1.16,0,0,0-.56-.51,2.33,2.33,0,0,0-.77-.09h-.94Z"/><path class="cls-4" d="M16.15,35.06a2.43,2.43,0,0,1,.6-1.74,2,2,0,0,1,1.54-.63,2.14,2.14,0,0,1,1.12.3,1.93,1.93,0,0,1,.76.83,2.69,2.69,0,0,1,.26,1.2,2.65,2.65,0,0,1-.27,1.22,1.89,1.89,0,0,1-.78.81,2.23,2.23,0,0,1-1.09.28,2.12,2.12,0,0,1-1.13-.3,2,2,0,0,1-.75-.83A2.53,2.53,0,0,1,16.15,35.06Zm.61,0a1.79,1.79,0,0,0,.43,1.27,1.52,1.52,0,0,0,2.19,0A1.9,1.9,0,0,0,19.82,35a2.29,2.29,0,0,0-.18-1,1.42,1.42,0,0,0-.54-.63,1.47,1.47,0,0,0-.8-.22,1.51,1.51,0,0,0-1.08.43A1.93,1.93,0,0,0,16.76,35.07Z"/><path class="cls-4" d="M24.12,32.77h.59v2.58a3.07,3.07,0,0,1-.15,1.07,1.31,1.31,0,0,1-.55.65,2,2,0,0,1-1,.25,2.15,2.15,0,0,1-1-.22,1.23,1.23,0,0,1-.57-.63,3,3,0,0,1-.17-1.12V32.77h.59v2.58a2.51,2.51,0,0,0,.11.86.82.82,0,0,0,.37.43,1.29,1.29,0,0,0,.65.15,1.23,1.23,0,0,0,.93-.3,1.71,1.71,0,0,0,.28-1.14Z"/><path class="cls-4" d="M25.68,37.24V32.77h1.68a2.07,2.07,0,0,1,.82.14,1.07,1.07,0,0,1,.49.42,1.1,1.1,0,0,1,.17.59,1,1,0,0,1-.16.54,1.12,1.12,0,0,1-.47.41,1.17,1.17,0,0,1,.62.41,1.09,1.09,0,0,1,.22.68,1.3,1.3,0,0,1-.13.58,1.12,1.12,0,0,1-.33.42,1.36,1.36,0,0,1-.49.22,3,3,0,0,1-.72.07Zm.59-2.59h1a2.18,2.18,0,0,0,.56-.05.63.63,0,0,0,.34-.22.64.64,0,0,0,.12-.39.72.72,0,0,0-.11-.39.54.54,0,0,0-.3-.23,2.54,2.54,0,0,0-.68-.06h-.89Zm0,2.07h1.11a2.62,2.62,0,0,0,.4,0,1,1,0,0,0,.34-.12.65.65,0,0,0,.23-.25.78.78,0,0,0,.09-.38.75.75,0,0,0-.13-.43.68.68,0,0,0-.36-.26,2.21,2.21,0,0,0-.65-.07h-1Z"/><path class="cls-4" d="M29.85,37.24V32.77h.59v3.95h2.2v.53Z"/><path class="cls-4" d="M33.36,37.24V32.77h3.24v.53H34v1.37h2.47v.52H34v1.52H36.7v.53Z"/><path class="cls-4" d="M12.11,42.67l.59.15A2,2,0,0,1,12,43.93a1.84,1.84,0,0,1-1.18.38A2.13,2.13,0,0,1,9.68,44,1.84,1.84,0,0,1,9,43.17,3,3,0,0,1,8.75,42,2.64,2.64,0,0,1,9,40.75,1.84,1.84,0,0,1,9.78,40a2.22,2.22,0,0,1,1.08-.27A1.84,1.84,0,0,1,12,40a1.77,1.77,0,0,1,.64,1l-.58.14a1.39,1.39,0,0,0-.45-.71,1.2,1.2,0,0,0-.74-.22,1.44,1.44,0,0,0-.86.25,1.3,1.3,0,0,0-.49.66,2.67,2.67,0,0,0-.14.86,2.72,2.72,0,0,0,.17,1,1.24,1.24,0,0,0,.52.64,1.44,1.44,0,0,0,.76.21,1.27,1.27,0,0,0,.84-.29A1.47,1.47,0,0,0,12.11,42.67Z"/><path class="cls-4" d="M13.45,44.24V39.77H14V41.6h2.33V39.77H17v4.47h-.59V42.13H14v2.11Z"/><path class="cls-4" d="M17.46,44.24l1.72-4.47h.64l1.83,4.47H21l-.52-1.35H18.58l-.49,1.35Zm1.29-1.84h1.52l-.47-1.24q-.21-.56-.32-.93a5.56,5.56,0,0,1-.24.85Z"/><path class="cls-4" d="M22.22,44.24V39.77h.59v4.47Z"/><path class="cls-4" d="M23.85,44.24V39.77h.61l2.35,3.51V39.77h.57v4.47h-.61l-2.35-3.52v3.52Z"/><path class="cls-4" d="M28.16,42.8l.56,0a1.22,1.22,0,0,0,.18.55,1,1,0,0,0,.45.35,1.71,1.71,0,0,0,.69.13,1.64,1.64,0,0,0,.6-.1.82.82,0,0,0,.39-.28.65.65,0,0,0,.13-.38.58.58,0,0,0-.12-.37.91.91,0,0,0-.4-.26,7.83,7.83,0,0,0-.8-.22,4.05,4.05,0,0,1-.86-.28,1.21,1.21,0,0,1-.48-.42,1,1,0,0,1-.16-.56,1.14,1.14,0,0,1,.19-.63,1.19,1.19,0,0,1,.56-.45,2.13,2.13,0,0,1,.82-.15,2.25,2.25,0,0,1,.88.16,1.26,1.26,0,0,1,.58.47,1.36,1.36,0,0,1,.22.71l-.57,0a.92.92,0,0,0-.31-.64,1.2,1.2,0,0,0-.78-.22,1.25,1.25,0,0,0-.78.2.59.59,0,0,0-.25.47.51.51,0,0,0,.17.4,2.36,2.36,0,0,0,.89.32,5.81,5.81,0,0,1,1,.29,1.36,1.36,0,0,1,.58.46,1.11,1.11,0,0,1,.19.64,1.22,1.22,0,0,1-.2.67,1.35,1.35,0,0,1-.59.49,2.06,2.06,0,0,1-.86.17,2.57,2.57,0,0,1-1-.18,1.42,1.42,0,0,1-.64-.53A1.51,1.51,0,0,1,28.16,42.8Z"/><path class="cls-4" d="M32.55,44.24V39.77h3.24v.53H33.14v1.37h2.48v.52H33.14v1.52h2.75v.53Z"/><path class="cls-4" d="M37.84,44.24V40.29H36.37v-.53h3.55v.53H38.43v3.95Z"/></svg>