<svg xmlns="http://www.w3.org/2000/svg" viewBox="0 0 48.37 48.37"><defs><style>.cls-1{fill:#f6f7f8;stroke:#dbdcdd;}.cls-1,.cls-3{stroke-miterlimit:10;}.cls-2{fill:#4b4c4d;}.cls-3{fill:#757677;stroke:#757677;stroke-width:0.4px;}</style></defs><title>20161004-attributes-icons</title><g id="Layer_1" data-name="Layer 1"><rect class="cls-1" x="0.5" y="0.5" width="47.37" height="47.37"/><path class="cls-2" d="M5.2,37.05,5.9,37a1.53,1.53,0,0,0,.23.69,1.25,1.25,0,0,0,.56.43,2.11,2.11,0,0,0,.86.17,2.05,2.05,0,0,0,.75-.13,1,1,0,0,0,.48-.34.8.8,0,0,0,.16-.48.73.73,0,0,0-.15-.46,1.13,1.13,0,0,0-.5-.33,9.64,9.64,0,0,0-1-.27,5,5,0,0,1-1.08-.35,1.51,1.51,0,0,1-.6-.52,1.27,1.27,0,0,1-.2-.7,1.42,1.42,0,0,1,.24-.79,1.49,1.49,0,0,1,.7-.56,2.66,2.66,0,0,1,1-.19,2.81,2.81,0,0,1,1.09.2,1.58,1.58,0,0,1,.73.59,1.69,1.69,0,0,1,.27.88l-.71.05a1.14,1.14,0,0,0-.39-.8,1.51,1.51,0,0,0-1-.27,1.56,1.56,0,0,0-1,.25.73.73,0,0,0-.31.59.63.63,0,0,0,.22.5,2.93,2.93,0,0,0,1.11.4,7.34,7.34,0,0,1,1.24.36,1.69,1.69,0,0,1,.72.57,1.39,1.39,0,0,1,.23.79,1.52,1.52,0,0,1-.25.84,1.67,1.67,0,0,1-.73.61,2.54,2.54,0,0,1-1.08.22,3.23,3.23,0,0,1-1.27-.22,1.78,1.78,0,0,1-.8-.67A1.88,1.88,0,0,1,5.2,37.05Z"/><path class="cls-2" d="M11,38.85V33.27h.74v2.29h2.9V33.27h.74v5.58h-.74V36.22h-2.9v2.63Z"/><path class="cls-2" d="M17,38.85V33.27h.74v5.58Z"/><path class="cls-2" d="M19.37,38.85V33.27h1.11l1.32,4q.18.55.27.83.1-.3.3-.89l1.34-3.88h1v5.58H24V34.18l-1.62,4.67H21.7L20.08,34.1v4.75Z"/><path class="cls-2" d="M25.59,38.85l2.14-5.58h.8l2.29,5.58H30l-.65-1.69H27l-.61,1.69Zm1.61-2.29h1.89L28.51,35q-.27-.7-.4-1.16a7.07,7.07,0,0,1-.3,1.07Z"/><path class="cls-2" d="M31.71,38.85V33.27h.76l2.93,4.38V33.27h.71v5.58h-.76l-2.93-4.39v4.39Z"/><path class="cls-2" d="M37.44,36.13A3,3,0,0,1,38.18,34a2.54,2.54,0,0,1,1.93-.79,2.68,2.68,0,0,1,1.39.37,2.41,2.41,0,0,1,.95,1,3.33,3.33,0,0,1,.33,1.5,3.29,3.29,0,0,1-.34,1.52,2.34,2.34,0,0,1-1,1,2.78,2.78,0,0,1-1.36.34,2.64,2.64,0,0,1-1.41-.38,2.45,2.45,0,0,1-.94-1A3.16,3.16,0,0,1,37.44,36.13Zm.76,0a2.24,2.24,0,0,0,.54,1.59,1.89,1.89,0,0,0,2.73,0A2.37,2.37,0,0,0,42,36.06a2.86,2.86,0,0,0-.23-1.19,1.78,1.78,0,0,0-.67-.79,1.83,1.83,0,0,0-1-.28,1.89,1.89,0,0,0-1.35.54A2.41,2.41,0,0,0,38.2,36.14Z"/><path class="cls-2" d="M20.08,45.85h-.69V41.48a3.6,3.6,0,0,1-.65.47,4.56,4.56,0,0,1-.72.35v-.66A4.17,4.17,0,0,0,19,41a2.61,2.61,0,0,0,.61-.75h.44Z"/><path class="cls-2" d="M22.14,43.1a5.12,5.12,0,0,1,.2-1.59,2,2,0,0,1,.61-.93,1.54,1.54,0,0,1,1-.33,1.65,1.65,0,0,1,.79.18,1.5,1.5,0,0,1,.56.52,2.8,2.8,0,0,1,.35.83,5.51,5.51,0,0,1,.13,1.32,5.12,5.12,0,0,1-.2,1.59,2,2,0,0,1-.6.93,1.55,1.55,0,0,1-1,.33,1.53,1.53,0,0,1-1.27-.58A3.68,3.68,0,0,1,22.14,43.1Zm.71,0a3.5,3.5,0,0,0,.32,1.83.92.92,0,0,0,1.59,0,3.51,3.51,0,0,0,.32-1.83,3.51,3.51,0,0,0-.32-1.83,1,1,0,0,0-.8-.45.88.88,0,0,0-.75.4A3.55,3.55,0,0,0,22.85,43.1Z"/><path class="cls-2" d="M26.79,44.39l.72-.06a1.28,1.28,0,0,0,.37.79,1,1,0,0,0,.7.27,1.09,1.09,0,0,0,.84-.37,1.4,1.4,0,0,0,.34-1,1.27,1.27,0,0,0-.33-.92,1.15,1.15,0,0,0-.86-.34,1.19,1.19,0,0,0-.6.15,1.16,1.16,0,0,0-.42.39l-.64-.08.54-2.87h2.78V41H28l-.3,1.5a1.82,1.82,0,0,1,1.05-.35,1.67,1.67,0,0,1,1.23.51,1.77,1.77,0,0,1,.5,1.3,2,2,0,0,1-.44,1.31,1.77,1.77,0,0,1-1.47.68,1.81,1.81,0,0,1-1.24-.43A1.66,1.66,0,0,1,26.79,44.39Z"/></g><g id="Layer_2" data-name="Layer 2"><path class="cls-3" d="M12.71,26.75a5.5,5.5,0,0,1,1.75-1.22,2.5,2.5,0,0,0,1-.81,2.53,2.53,0,0,0-4.06-3A2.5,2.5,0,0,0,11,22.93a5.53,5.53,0,0,1-.66,2,5.21,5.21,0,0,1-1.64,1.16,2.52,2.52,0,1,0,3.41,2.51A5.19,5.19,0,0,1,12.71,26.75Zm-.56-4.5a1.63,1.63,0,1,1,.34,2.28A1.63,1.63,0,0,1,12.16,22.25ZM8.59,29.8a1.63,1.63,0,1,1,2.28-.34A1.63,1.63,0,0,1,8.59,29.8Z"/><path class="cls-3" d="M25,18.29a5.5,5.5,0,0,1,2.12-.23,2.5,2.5,0,0,0,1.29-.21,2.53,2.53,0,1,0-2.12-4.58,2.5,2.5,0,0,0-1,.84,5.53,5.53,0,0,1-1.56,1.47,5.21,5.21,0,0,1-2,.24,2.52,2.52,0,1,0,1.79,3.84A5.19,5.19,0,0,1,25,18.29Zm1.66-4.22a1.63,1.63,0,1,1-.8,2.17A1.63,1.63,0,0,1,26.71,14.07ZM20,19a1.63,1.63,0,1,1,2.17.8A1.63,1.63,0,0,1,20,19Z"/><path class="cls-3" d="M38.16,8.67A5.5,5.5,0,0,1,40,7.6a2.5,2.5,0,0,0,1.1-.72,2.53,2.53,0,1,0-3.79-3.34,2.5,2.5,0,0,0-.57,1.17,5.53,5.53,0,0,1-.83,2,5.21,5.21,0,0,1-1.73,1,2.52,2.52,0,1,0,3.18,2.79A5.19,5.19,0,0,1,38.16,8.67ZM38,4.13a1.63,1.63,0,1,1,.14,2.31A1.63,1.63,0,0,1,38,4.13Zm-4.19,7.22a1.63,1.63,0,1,1,2.31-.14A1.63,1.63,0,0,1,33.79,11.35Z"/><path class="cls-3" d="M17.08,20.17a2.54,2.54,0,0,1-.84.45,3.32,3.32,0,0,1,1.12,1.52A3.32,3.32,0,0,1,18.88,21a3.32,3.32,0,0,1-1.12-1.52A2.54,2.54,0,0,1,17.08,20.17Z"/><path class="cls-3" d="M30.75,12.28a2.54,2.54,0,0,1-.84.45,2.54,2.54,0,0,1,.67.68,2.54,2.54,0,0,1,.45.84,3.32,3.32,0,0,1,1.52-1.12,2.54,2.54,0,0,1-.67-.68,2.54,2.54,0,0,1-.45-.84A2.54,2.54,0,0,1,30.75,12.28Z"/></g></svg>