<svg id="Layer_1" data-name="Layer 1" xmlns="http://www.w3.org/2000/svg" viewBox="0 0 48.37 48.37"><defs><style>.cls-1{fill:#f6f7f8;stroke:#dbdcdd;stroke-miterlimit:10;}.cls-2{fill:#4b4c4d;}.cls-3{fill:#757677;}</style></defs><title>20161004-attributes-icons</title><rect class="cls-1" x="0.5" y="0.5" width="47.37" height="47.37"/><path class="cls-2" d="M1.29,33.64V33H4.9v.53A7.65,7.65,0,0,0,3.84,35,9.21,9.21,0,0,0,3,37a7.21,7.21,0,0,0-.26,1.53h-.7a6.84,6.84,0,0,1,.26-1.59A8.41,8.41,0,0,1,3,35.1a7.72,7.72,0,0,1,1-1.46Z"/><path class="cls-2" d="M5.58,35.73a5.09,5.09,0,0,1,.2-1.59,2,2,0,0,1,.61-.93,1.55,1.55,0,0,1,1-.33,1.65,1.65,0,0,1,.79.18,1.5,1.5,0,0,1,.56.52,2.8,2.8,0,0,1,.35.83,5.5,5.5,0,0,1,.13,1.32A5.11,5.11,0,0,1,9,37.32a2,2,0,0,1-.6.93,1.55,1.55,0,0,1-1,.33A1.53,1.53,0,0,1,6.13,38,3.68,3.68,0,0,1,5.58,35.73Zm.7,0a3.49,3.49,0,0,0,.32,1.83.92.92,0,0,0,1.59,0,3.5,3.5,0,0,0,.32-1.83,3.5,3.5,0,0,0-.32-1.83,1,1,0,0,0-.8-.45.88.88,0,0,0-.75.4A3.55,3.55,0,0,0,6.28,35.73Z"/><path class="cls-2" d="M9.92,35.73a5.09,5.09,0,0,1,.2-1.59,2,2,0,0,1,.61-.93,1.55,1.55,0,0,1,1-.33,1.65,1.65,0,0,1,.79.18,1.5,1.5,0,0,1,.56.52,2.8,2.8,0,0,1,.35.83,5.5,5.5,0,0,1,.13,1.32,5.11,5.11,0,0,1-.2,1.59,2,2,0,0,1-.6.93,1.55,1.55,0,0,1-1,.33A1.53,1.53,0,0,1,10.47,38,3.68,3.68,0,0,1,9.92,35.73Zm.7,0a3.49,3.49,0,0,0,.32,1.83.92.92,0,0,0,1.59,0,3.5,3.5,0,0,0,.32-1.83,3.5,3.5,0,0,0-.32-1.83,1,1,0,0,0-.8-.45.88.88,0,0,0-.75.4A3.55,3.55,0,0,0,10.62,35.73Z"/><path class="cls-2" d="M17.08,37l.67.09a1.75,1.75,0,0,1-.57,1.09,1.65,1.65,0,0,1-1.12.39A1.74,1.74,0,0,1,14.74,38a2.2,2.2,0,0,1-.5-1.56,2.82,2.82,0,0,1,.22-1.15,1.52,1.52,0,0,1,.66-.74,2,2,0,0,1,1-.25,1.68,1.68,0,0,1,1.08.33,1.52,1.52,0,0,1,.54.95l-.67.1a1.11,1.11,0,0,0-.34-.61.87.87,0,0,0-.58-.21,1.07,1.07,0,0,0-.84.37,1.77,1.77,0,0,0-.32,1.17,1.82,1.82,0,0,0,.31,1.18,1,1,0,0,0,.82.37,1,1,0,0,0,.67-.25A1.22,1.22,0,0,0,17.08,37Z"/><path class="cls-2" d="M21.57,38.49,20.09,32.9h.76l.85,3.66q.14.57.24,1.14.21-.9.25-1l1.06-3.77h.89l.8,2.83a14.87,14.87,0,0,1,.43,2c.07-.35.16-.76.28-1.21l.88-3.59h.74l-1.53,5.58H25l-1.18-4.25q-.15-.53-.17-.65-.09.38-.16.65l-1.18,4.25Z"/><path class="cls-2" d="M28,38.49V32.9h.74V35.2h2.9V32.9h.74v5.58h-.74V35.86h-2.9v2.63Z"/><path class="cls-2" d="M33.61,38.49V32.9h4v.66h-3.3v1.71h3.09v.65H34.35v1.9h3.43v.66Z"/><path class="cls-2" d="M38.81,38.49V32.9h4v.66h-3.3v1.71h3.09v.65H39.55v1.9H43v.66Z"/><path class="cls-2" d="M44,38.49V32.9h.74v4.92h2.75v.66Z"/><path class="cls-2" d="M14.35,43.69l.7-.06a1.55,1.55,0,0,0,.23.69,1.26,1.26,0,0,0,.56.43,2.12,2.12,0,0,0,.86.17,2.05,2.05,0,0,0,.75-.13,1,1,0,0,0,.48-.34.8.8,0,0,0,.16-.48.73.73,0,0,0-.15-.46,1.13,1.13,0,0,0-.5-.33,9.86,9.86,0,0,0-1-.27,5.11,5.11,0,0,1-1.08-.35,1.52,1.52,0,0,1-.6-.52,1.27,1.27,0,0,1-.2-.7,1.42,1.42,0,0,1,.24-.79,1.48,1.48,0,0,1,.7-.56,2.66,2.66,0,0,1,1-.19,2.8,2.8,0,0,1,1.09.2,1.58,1.58,0,0,1,.73.59,1.68,1.68,0,0,1,.27.88l-.71.05a1.14,1.14,0,0,0-.39-.8,1.5,1.5,0,0,0-1-.27,1.57,1.57,0,0,0-1,.25.74.74,0,0,0-.31.59.63.63,0,0,0,.22.5,2.93,2.93,0,0,0,1.11.4,7.38,7.38,0,0,1,1.24.36,1.69,1.69,0,0,1,.72.57,1.39,1.39,0,0,1,.23.79,1.52,1.52,0,0,1-.25.84,1.68,1.68,0,0,1-.73.61,2.56,2.56,0,0,1-1.08.22,3.22,3.22,0,0,1-1.27-.22,1.78,1.78,0,0,1-.8-.66A1.88,1.88,0,0,1,14.35,43.69Z"/><path class="cls-2" d="M19.82,45.49V39.9h4v.66h-3.3v1.71h3.09v.65H20.56v1.9H24v.66Z"/><path class="cls-2" d="M26.42,45.49V40.56H24.58V39.9H29v.66H27.16v4.92Z"/><path class="cls-2" d="M29.52,43.69l.7-.06a1.55,1.55,0,0,0,.23.69,1.26,1.26,0,0,0,.56.43,2.12,2.12,0,0,0,.86.17,2.05,2.05,0,0,0,.75-.13,1,1,0,0,0,.48-.34.8.8,0,0,0,.16-.48.73.73,0,0,0-.15-.46,1.13,1.13,0,0,0-.5-.33,9.86,9.86,0,0,0-1-.27,5.11,5.11,0,0,1-1.08-.35,1.52,1.52,0,0,1-.6-.52,1.27,1.27,0,0,1-.2-.7,1.42,1.42,0,0,1,.24-.79,1.48,1.48,0,0,1,.7-.56,2.66,2.66,0,0,1,1-.19,2.8,2.8,0,0,1,1.09.2,1.58,1.58,0,0,1,.73.59,1.68,1.68,0,0,1,.27.88l-.71.05a1.14,1.14,0,0,0-.39-.8,1.5,1.5,0,0,0-1-.27,1.57,1.57,0,0,0-1,.25.74.74,0,0,0-.31.59.63.63,0,0,0,.22.5,2.93,2.93,0,0,0,1.11.4,7.38,7.38,0,0,1,1.24.36,1.69,1.69,0,0,1,.72.57,1.39,1.39,0,0,1,.23.79,1.52,1.52,0,0,1-.25.84,1.68,1.68,0,0,1-.73.61,2.56,2.56,0,0,1-1.08.22,3.22,3.22,0,0,1-1.27-.22,1.78,1.78,0,0,1-.8-.66A1.88,1.88,0,0,1,29.52,43.69Z"/><rect class="cls-3" x="24.37" y="18.13" width="0.42" height="11.64" transform="translate(-4.7 6.04) rotate(-12.8)"/><rect class="cls-3" x="26.27" y="17.61" width="0.42" height="11.84" transform="translate(-7.85 14.8) rotate(-27.37)"/><rect class="cls-3" x="17.87" y="23.64" width="11.84" height="0.42" transform="translate(-4.67 41.86) rotate(-77.4)"/><rect class="cls-3" x="16.03" y="23.29" width="11.8" height="0.42" transform="translate(-9.07 32.01) rotate(-62.33)"/><rect class="cls-3" x="18.76" y="9.36" width="11.64" height="0.42" transform="translate(9.79 31.42) rotate(-77.19)"/><rect class="cls-3" x="20.56" y="9.78" width="11.84" height="0.42" transform="translate(5.44 28.92) rotate(-62.65)"/><rect class="cls-3" x="23.58" y="3.76" width="0.42" height="11.84" transform="translate(-1.54 5.43) rotate(-12.61)"/><rect class="cls-3" x="21.72" y="4.12" width="0.42" height="11.8" transform="translate(-2.15 11.33) rotate(-27.67)"/><rect class="cls-3" x="29.93" y="14.87" width="0.42" height="11.64" transform="translate(-5.52 28.74) rotate(-47.2)"/><rect class="cls-3" x="28.61" y="16.2" width="0.42" height="11.84" transform="translate(-7.38 19.04) rotate(-32.64)"/><rect class="cls-3" x="30.23" y="14.03" width="0.42" height="11.84" transform="translate(2.3 43.04) rotate(-72.61)"/><rect class="cls-3" x="30.86" y="12.27" width="0.42" height="11.8" transform="translate(11.65 48.47) rotate(-87.67)"/><rect class="cls-3" x="24.7" y="13.29" width="11.64" height="0.42" transform="translate(-2.63 9.64) rotate(-17.21)"/><rect class="cls-3" x="25.19" y="15.14" width="11.84" height="0.42" transform="translate(-0.67 1.44) rotate(-2.63)"/><rect class="cls-3" x="24.11" y="12.66" width="11.84" height="0.42" transform="translate(-0.78 23.74) rotate(-42.63)"/><rect class="cls-3" x="22.9" y="11.22" width="11.8" height="0.42" transform="translate(3.74 29.66) rotate(-57.67)"/><rect class="cls-3" x="12.31" y="20.48" width="11.64" height="0.42" transform="translate(-9.23 17.83) rotate(-42.8)"/><rect class="cls-3" x="13.52" y="21.92" width="11.84" height="0.42" transform="translate(-9.67 26.57) rotate(-57.38)"/><rect class="cls-3" x="11.91" y="19.75" width="11.84" height="0.42" transform="matrix(0.95, -0.3, 0.3, 0.95, -5.15, 6.24)"/><rect class="cls-3" x="11.29" y="17.96" width="11.8" height="0.42" transform="matrix(1, -0.04, 0.04, 1, -0.72, 0.71)"/><rect class="cls-3" x="17.54" y="7.68" width="0.42" height="11.64" transform="translate(-0.39 26.46) rotate(-72.8)"/><rect class="cls-3" x="16.95" y="9.43" width="0.42" height="11.84" transform="translate(1.03 31.79) rotate(-87.37)"/><rect class="cls-3" x="18.02" y="6.95" width="0.42" height="11.84" transform="translate(-3.58 17.57) rotate(-47.39)"/><rect class="cls-3" x="19.25" y="5.53" width="0.42" height="11.8" transform="translate(-3.1 12.18) rotate(-32.33)"/><polygon class="cls-3" points="25.11 15.08 26.06 16.73 25.11 18.38 23.2 18.38 22.25 16.73 23.2 15.08 25.11 15.08"/><path class="cls-3" d="M25.23,18.59H23.08L22,16.73l1.07-1.86h2.15l1.07,1.86Zm-1.91-.42H25l.83-1.44L25,15.29H23.32l-.83,1.44Z"/><polygon class="cls-3" points="25.41 14.7 26.58 16.73 25.41 18.77 23.06 18.77 21.88 16.73 23.06 14.7 25.41 14.7"/><path class="cls-3" d="M24.18,30.18A13.51,13.51,0,1,1,37.69,16.67,13.52,13.52,0,0,1,24.18,30.18Zm0-25.76A12.26,12.26,0,1,0,36.44,16.67,12.27,12.27,0,0,0,24.18,4.41Z"/></svg>